<mxfile host="65bd71144e">
    <diagram id="HIP3nbAZw_EuaXWnEj3U" name="Page-1">
        <mxGraphModel dx="289" dy="253" grid="1" gridSize="10" guides="1" tooltips="1" connect="1" arrows="1" fold="1" page="1" pageScale="1" pageWidth="850" pageHeight="1100" background="#ffffff" math="0" shadow="0">
            <root>
                <mxCell id="0"/>
                <mxCell id="1" parent="0"/>
                <mxCell id="7" value="http://ics2o.mths.ca" style="swimlane;whiteSpace=wrap;html=1;" parent="1" vertex="1">
                    <mxGeometry x="40" y="40" width="760" height="480" as="geometry"/>
                </mxCell>
                <mxCell id="9" value="Do You Get Free Admission?" style="whiteSpace=wrap;html=1;fillColor=#b0e3e6;strokeColor=#0e8088;fontColor=#000000;fontSize=21;" parent="7" vertex="1">
                    <mxGeometry y="20" width="760" height="60" as="geometry"/>
                </mxCell>
                <mxCell id="10" value="Find out if you get free admission by entering your age and the day below!" style="text;html=1;align=center;verticalAlign=middle;resizable=0;points=[];autosize=1;strokeColor=none;fillColor=none;fontColor=#000000;fontSize=18;" vertex="1" parent="7">
                    <mxGeometry y="80" width="610" height="40" as="geometry"/>
                </mxCell>
                <mxCell id="11" value="Age.." style="rounded=1;whiteSpace=wrap;html=1;fontSize=18;fillColor=#eeeeee;strokeColor=#36393d;fontColor=#000000;align=left;" vertex="1" parent="7">
                    <mxGeometry x="10" y="130" width="200" height="30" as="geometry"/>
                </mxCell>
                <mxCell id="12" value="Calculate" style="rounded=1;whiteSpace=wrap;html=1;fontSize=18;fillColor=#eeeeee;strokeColor=#36393d;fontColor=#000000;" vertex="1" parent="7">
                    <mxGeometry x="10" y="240" width="110" height="30" as="geometry"/>
                </mxCell>
                <mxCell id="13" value="You get in for free!" style="text;html=1;align=center;verticalAlign=middle;resizable=0;points=[];autosize=1;strokeColor=none;fillColor=none;fontSize=18;fontColor=#000000;" vertex="1" parent="7">
                    <mxGeometry y="290" width="170" height="40" as="geometry"/>
                </mxCell>
                <mxCell id="14" value="Day..." style="rounded=1;whiteSpace=wrap;html=1;fontSize=18;fillColor=#eeeeee;strokeColor=#36393d;fontColor=#000000;align=left;" vertex="1" parent="7">
                    <mxGeometry x="10" y="180" width="200" height="30" as="geometry"/>
                </mxCell>
                <mxCell id="16" value="" style="shape=image;verticalLabelPosition=bottom;labelBackgroundColor=default;verticalAlign=top;aspect=fixed;imageAspect=0;image=data:image/jpeg,/9j/4AAQSkZJRgABAQAAAQABAAD/2wCEAAkGBxMTEhUTEhIWFhUVGBgTGBUWFRUXFhYVFRYXFhUXGhgaHSggGBoxGxkVITEiJSkrLi4uGB8zODMtNygtLisBCgoKDg0OGxAQGzUlHyYtLS0wLy0tLS0tLS0tLysvLS0tLS0tNS0tLS0tLS0tLS0tLS0tLS0tLS0tLS0tLS0tLf/AABEIAOEA4QMBIgACEQEDEQH/xAAcAAEAAgIDAQAAAAAAAAAAAAAABQYEBwECAwj/xABFEAACAgEDAQQIAgQNAgcBAAABAgADEQQSITEFBhNBByIyUWFxgaGRsUJywfAUI0NSYnOCkqKywtHSM0RTVIOTs+HjFv/EABoBAQADAQEBAAAAAAAAAAAAAAABAgMEBQb/xAAyEQACAQIDBAkEAgMBAAAAAAAAAQIDESExQQQSUZEFE2FxgaGx0fAiMkJSksEz4fEU/9oADAMBAAIRAxEAPwDeMREAREQBERAEREAREQBERAEREAREQBERAEREAREQBERAEREAREQBERAEREAREQBERAEREAREQBERAEREAREQBERAEREAREQBERAEREAREQBERAEREAREQBERAERPDUalEGXdVHvZgo+8A94kDqe+GhTrqUb9TNn+QGRGq9JOlX2Eus+IVVH+JgftLKEnkijqwWbLrE1nqfSdYf8Ap6ZR7i9hb/CFH5yH1Pf/AFz9LEr/AFKx/r3S6oyZm9pgjck8NRqq6xmx1Qe9mCj7maL1fb2qs9vU2n4CxlH91SB9pHnk5PU+fmfrLdRxZk9rWiN26nvjoU66lG/U3Wf5AZgaPv5pbLkpQWfxh2hyqqgJBxnLbuTgdOpE1DCrnjjnjnpz7/hL9REo9qnwNl95O/1lF9lFVNbeGQN7OSCSqsfVAGMEkdfKVvU9/tc/SxK/6utf9e6YXenu62isRC4cOu4MF28g4ZcZPTjn+lIWTCELXKVKtTeabJDVdu6qz29Tafh4jKv91SB9ptfuClg0NQtBBO5lycko7lkJ+h6e7E0xNpei3VXPRYtm41oVWpm6YwQyKepAwvwGcDpgVrR+nAvs0vrxLzEROY7xERAEREAREQBERAEREAxO0ddXRW1tp2ogySAWxkgdFBJ5IlV1XpJ0q+wltnyVVH+JgftLH3i0vi6W+sdWqcD9badv3xNDAzWlBSzOavVlBqxf9V6TnP8A09Mo+L2Fv8IUfnIjU9/9c/R0r/UrH+stKvE6FTitDldao9SR1Xb+qs9vU2n4CxlH4LgfaRzcnJ5PvPX8YiXWGRk3fMRBMlO0u72poAayptpVX3qGKKG8mbHqsDwQZDaWZKTeRFxLb3P7n/wuqyx3CqQUr2tuZbAfadR5YHQnJDeXBkH2j2clOpNDX5VGCvatber/ADsJnJweOD5SFNNtFnTkoqTyZgJ1nPifCbH7x92NLXofGrRnaqkKroQPE3YAtcAYPtFj8M/DGtZEJ7yuhUpuDszvuHu+wnLBeh8/yP1nnOz9fw/KXKEz292nqNStVl6+qoNdbhGVW6bzuOQzeqM449U8DmQzKMcSz6zt6mzsuvTHPjVuMDacBVZsNu6eycY65J8uZWB0+o/bKwyysWnne98EdZfPRZ2ld4rafJNIRnxt4Ryy49byB9fg9SMjzlDlm7gdr2U6pKlwUvZVdcEngNhl54Izk9eAfmIqK8WWou00bliInEeoIiIAiIgCIiAIiIAiIgHGJoNux7jZZXVTY4rd68pW7AbGK8kDAPE37OMS8JuJlVpKpbE+e9Vo7Kv+rU9fkN6MmfluAzPGfQ11KupV1DKRgqwBBHuIPWar7/d1F02L6Biljhk6+Gx6Y/oHp8DgdCAN4VU3ZnJV2dwV1iU2Inppa1Z1Dv4ak8vtZ9o9+1eT9Jsc530Gueixbajh0OVJAI6EEEHywSPrLf3x75VaqlqK0sA3IyuSAG2nJDL1x7viAeMSG7W7J01NFdi3XWterNUy1pXXlGCtvDMXHXoOZI6TsKhtbo0Cnwb6Vv2lidzeG7Mmf1kBI9xImUnF/U/ljeKmk4LW3mQPZHbl2mWwUMENuwM2AWGwsRtzwPaIOQfpPO3x9TechrLrMEgKAzYQc7QAB6oB6fGZj9ovqabEOlqJVPGDVotRorUjxBwBvTBAweec844tl99DLUxsarUa7SpWLsDZWVADKT1G4+qSOm0dOIbtpiRGG8vuw5a6FQ0mj1F6m42KK1xQbLrlRRgBlr9Y56YOAPvO2j0FRtNdurrTlFVq0tuVy5xgHC4xxknjnzxJjsHTPXVrdJZXUba2psWu1gKywbDnO5cjYVI58x8pA9vUkMG36bLDG3SlSqbemQowG595PElSu7IhwShvNd+Z7d4NJTRaaa2td6yVsLqiqTxtKAEnHXr8JGbx5j7CSPenX136l7qs4sCE5BGHFaqw5+I6+f3kVLxbsrlJpbzsWzur2LRqdNqiy5trXKHcwC+oxU4BwfWU5z5CVYkY4+fnJDu72bdqbTRS+wsjF8uyqyKQCG2+0MsOMSPvqZHZGGGRmRh7mUlSPxBkL7niTL7VgdJIdg9sto7fHUK2FKsG80OC2D5HgcyPnv2fqfCtSzaG2Mr7W6Hac4Mlq6Kp2aZ9BKcidpH9idoDUUVXAbfEUMVznafNc4GcHIzjykhOA9ZYrAREQSIiIAiIgCIiAIiIAiIgCRfeXSi3SXofOp8fBgpKn6EA/SSkrvfrtMUaO3n1rAaUHmS4IJHyXc30kq91YrJpRdzSwichZ2wBO88kk79aj6OinnxKbLcZHHh2Yc4Pv3eXwnN/bLbNKFytmmDKHByTlwycYwMDjnOc/SRjNxxPNBk7V5PuHJ/ASN1E77fzgTGt7wWWI6hKavEwbDXWEa0A5w7ZORnnjGcn4yLu1DsqIzEqgIQHooY5YD6/vxMurs1lev8AhC2UVucGx6nwAByQpxu8hx78zaY7raRtJTWVNyVKXRlYh335diGQjIYnOOh4mcpxjY1jTnUuaddiTknJ955P4mJJdnJpHLtc9ta5zXXUu87SScb34yBgc9eszTruz09jR3Wked1+z6lauDL73YZqF1e6+dxAE46znHAOOD0Pkfl75Pr3qZD/ABGm01P9JKQX/vsTn8JGdp9r36ghr7TYVyFyFG0NjOAoAHQfgITk9A1FZO/h7s79gdrtpL1vVQ20EFScAqw5GeceRzg9Jjdoao222WkAGx2cgdAWJJEdn3BLanPISxHIxnIRwxGPPgSe9IOrpt1YsosVwa03FeRvBbz8zt2/LEflkSsYZ5P1K1DCIlihu3ud2tXqdMGrrFQQ+EaxjapUA4XHlgiT0pHoy7Qpag011lLK8NYfKxnyA4PU8KBg9MAdJd5wzVpNHq05b0UxERKlxERAEREAREQBERAExtbqkqRrLG2ovJY545x5fOZMje8Wm8XS31+bVOB89px98QQ8iC7S9IOkrB8Mta3kFVlGfizgDHyz8prXt7tu3V2eJaRxkIg9lAfIe89Mnzx7gAI0GJ2RpxiebOtKeZ3dvd5zM7KfTAsdSlz9Ni1Mig9d28tz/Nxj4zCX3fvmchPfj7S7VzJYMnk7b0y8U9nU/O53v+pVsAfjOW736vGEdKl91NSIv3Bb8DIEt7vzH5ToR+/Eo+rWb5s3Ua8vtT8E/wCkZOt7SttObLXcjoXdmxnrgE4X6TLbvJqsVBb3QUotaBCVGAAAWA9s4A6/aRWDOcfvkSjrUVnKPNe5eOy7U8oS/jL2BOeTOJkVadD7Vyj+zYT+GwD7zMqo0Y9u/UP8K6K0+72n8pV7Zs6/NGkejNseVJ8rEXEstOp7KXrp9VZ/WWKv/wAbCZ9PevQ181dmpn3sU3fiUY/eZPpGhozeHQ21vONuRTaKmfitWc+5FLH8FBlx7R7iWfwfTvp0sex1BtRzWmwsobOGK7cHK45PT45zD6TCBhdKoH9afyFYnjZ6S7/0aKh8y7ftExl0lT0fk/Y6IdB18d5ea92Y2l9HOsb22qQfF2ZvwVcfeS+m9GC/yupJ+CVhfuxb8pFWekfVnolI/sOf9c8H9IGtP6VY+VY/aTKPpOPF8jWPQVTVLxZsHu73Vo0ZZqjYWYbSXYHIByOAAPtJ+au7Q7+O2lrFVjLqSf4xgibdoDZxuBHJ2njpz084F+9uuPXUv9Ao/JRM6m3QT4m9Lomq1pHG2N+eWXA3fE0TZ3j1bddVd9LGX/KRLF6O9VqbNVuey6ytUYMXsdlBONudxxnI48+siG2RnJRUXj3FqvRkqdNzclh3/wBm1IiJ2HmCIiAIiIAiIgCcGcxAPn2/QsLbKkRmNbtXhVLH1GKjgDPlM/S91NbZ7Ols/tgV/wCcgzecTfr3wOVbItWaj03o51jY3tVWPizMw+irj7yq3rtZlJ5UlfqDifQpmg+21xqbx7rrR+FjCeV0lJzUW9G/M9/oOmqcpqOqXlf3MLMRE8pJH0N2InE5kkCJzWhYgKCSeAACSfkB1kzr+6+pqqSxqmKsniNgHNY6kWD9E4wfx90soykm0ikqkItKTtfIhYlh7r91rNWS3sUjcDZlSd4HCgZz1IJ46Z5zI7tfse3T2il9m8gH1HBHrHAyTjb7+ccEGWdOaipWwKqvTdR008V88teBHxLhqO4Nq6dbS6LYNzWK7gIlYBIIcA88c54568c1GrqPx/bE6coW3la5FKvTq33Hex2JHT6dP9o2j9z/ALzoZxM2zWxNOtH8CGK8XizG/wAQEsOWwa85VdvAIGNy9eZDFDJSnsa1tK+pUjw63CMMncSdvIGMEDePPzaRniGXnpdWwMqVvqSd8X4Ph8wOCJa/RvrbV1S1Jk12bjYMZA2oxVif0fWwM+e7HuxV1f7CWHuB2m9OqRFwVuIRwRk4UMVKnyIJPwxn5i9BpVIu+vzmU2tOVCaSvh85ZrtNyxET3D5MREQBERAEREAREQBERAEgLO6OjZndqAzOzOxLOcsxJY+1xyTwJPxIcVLNFozlH7XbuwKP2v6PKHBOnZqm8gSXrJ+OcsPoePcZrXtHQ2UWNVau1l6jy+BB8wffPoKUH0p9nA1V6gD1kbw2PvR84z8mAx+sZw7Vs0d1zirWPV2DbqnWKnUd0+OaengaynMT30NqK2bKvFXB9Xc1eT5HcozPMPdeWHzmedNzowetijLyrA4IPkZcO8nfYamiyhanQEoVcuMnDAsHUcAcHgE+Uje9denpFaU6YIXqq1G/xbnYbwxKgMcY4xmSOq7IpTW6w+Gproo8dKjnax8OsgNzkpuLEjPunVCFSN6cXwT8U3wOGpKjU3as4vBNrLRx4O2btjkrkH2B3gs0fiGsKWsVVy2SF2knO0e0eT1/+pi9r9otqLXudVVm27toIXIVUzyT7hMrtDWC2hmOmRXrYZtprFabGVsJYq8btw4PuGPnbu2OzK6bNXbp1re7YHWkAfxFLIq2WKmMNZkMceQYHzw0RhKcN1S+lY+uS1d7+5adWFKpvuFpu6z4OOb4Yp38iuP3vvOnGm21+H4IowQSxAXbvzu4bj5cSEppckgIxI6gKSRn4AcS09h6zwuzWPj2U41eN9QDM26hcKcsvHGc58hI7s/tiwatGr1FzK9tIZnYhnUMow4ViCOSOvSJLe3XOV27cML+JMPo31Tgklfji14Z91+0i76GXHiVuuc43oVzjrgkDP0niAD+/wDvJTvZdYdXer2OwW2zaGdmCqXJAUE+qMY4HuEh5jNJSa4HRTblBSeqvh8uT2n7fZNG+kCrixs7yeQPVyMDg+z1z5yD2GWzu5rqF7N1ldjILG3FAcbmJqUV7R1OHHl0zniVIOZep9sW3fDl2GVFremlG2PPDP8A0dsYB+knO4/apo1SYUMLitJz1AsdQCD88cecgi0l+5/aK06qt2rDgnZzj1C5A3rnzHP0JlaTtUi72LbRHeoyVr4PD52m8YiJ7x8iIiIAiIgCIiAIiIAiIgCIiAJTvSfqQujC+dligD9U7yfsPxlj7U7Tq06b7nCL8epPuUDlj8BNP96e3W1l2/G2tAVRD1C+ZOP0jxn5AeWTy7XVUYOOrPQ6O2eVSqp6J3v26Ig5yBO+AP3/AGQ1v7n/AGnj4an0qvoZ3a+tN/hbl2+FRXRwc7hXu9bJHB9bpzMq7vHYb/HUKG2LWQRuRlCBWVgeqnHT5c8ZkI7gnjBzyOZ716C1vZqdv1a3b8hNFUm3hnh5ZGLo01FKSwxWPbmZnaXbDWVipa6qqy28pUpXc+NuWJJLYHTy+2Or9uXnULqAwW1QoBUYGFXZgjzyOvz8uJId1e7n8JsKPYtexgWrYMLWUH1wFIGP5pOcgnke+X79d16Kd16WisOQFoFeQXx6wUhhtXHrdDjn3gTXcqyj1l/TS/p4M53V2eNRUbYu+jf3Ww4u/HFFX0fbuop3im01h23sFVMFj5gEer9MeXumPrO0LbXFlljM4wAxPI2nIxjpySZKabujq3RbBWoRgGVmsqAKsMg+1kcTse6lg9vUaRP19So/IGV6us1azt4mnXbMpXTjfss/Qg77mdi7sWZjksTkknqTOksA7t1j2+0NIP1LWs/ICQmqrCuyq4cAkBwCAwHmAeZnKEo4y9Ua06sJYR9GvVE93X7urqqtQ5sZWqUFAMYLEMRuyOR6uMDHnK5mS/YD6zFqaTedyfxoQL7AyAfW6HlgNvPJxIgRPd3Y2XG74/8ACKe/1k7yusLLhh/eaEku7urqq1Fdl9fiIpyV44P6LYPBwcHB+fkJGzM7IelbkOpUtUD6wGckYOOByRnBIHUAyIu0k+3XIvUV4NO+Tyz8O3gb+idK3BAI6EZHyM7z6A+NEREAREQBERAEREAREQBNX+kjW3V6tRXdagalDtSx1Gd9gJwDjPTn4TaE1b6WU/j6T768f3XP/Kcu2f4n4ep39GpPaEmtH6FKuuZzudmZum5iWb8TzOqHmcRPHPpew5YeUndL3ntRQqVaYbQFyNOu44GMk+ZkKMcE/Kcl/d+/0EvGbhk7FJ0o1FaUblg//sNdjAv2/q1Ugf5OJj296tYeupf6Hb91AkGze8zoX+X4iS68/wBnzfuVWy0l+C/ivYleyu2np1A1GPEcbz67HJLqy5LdT7WfjMjtnvPdqqxXdsO1/EVlUqw4YbeuCPW92ePOQqrnpz8uZkJ2fafZqc/Ktz+QhTm1uq9mJUaSkpySurWfCxibP3wJ2EkE7C1J6aa8/wDo2f8AGe6d2NYemlt+qkfniV6qT/HyfsXdeC/Jc17kREnk7m64/wDbH6vSPzeZFfcPWn+TUfOxP2Ey3U1P1fIze1UV+a5o6dye8CaSy1rEZg6ADbjO5SSOpHByeZXAJsPut3GdLi2rSp69hAXcX9clcEjbjpu8+pmHZ6N7yzYspC7jt9awnbn1c+r1xjzm7oVnCKtxwOWO2bMqs5b2dsdHbh3FImR2etZsQWlhUWAYrywXzx++Zc19GVvnqKx8kY/6hMiv0YfztUPpT/8ApKLZa36+a9zR9IbNlv8AJSv6F/0hUopQ5TaNpByCuODnz4xMiYnZ2m8KquvOdiKmcYztULnHl0mXPaPlxERAEREAREQBERAEREASC7w92adWyNaXBrDAbCBkNgnOQfcJOxKyipK0ldF4TlB70XZlRX0faIdRYfm5/YBMhO4mgH8iT87bv+cs0SioUl+K5I1/9df93zZBL3R0Q/7ZPruP5meyd2tGOmko+tSH8xJeJZQitPJGbq1HnJ82R6djacdNPSPlUg/ZMlNKg6Io+SgT3iWsijbeZwJzESSBERAEREAREQBERAEREAREQBERAEREAREQBERAEREAREQBERAEREAREQBERAEREAREQBERAEREAREQBERAEREAREQBERAEREAREQBERAEREAREQBERAEREAREQBERAESM7c0zugCc4OSucZEiz2Y3/AJdv/cH184BZ4lWPZj/+AfL9NeeOfP5GZPZehtW0Nt2KAc+sDu64HBPw/CAWCIiAIiIAiIgCIiAIiIAiIgCIiAIiIAiIgCIiAIiIAiIgCIiAIiIAiIgCIiAf/9k=;" vertex="1" parent="7">
                    <mxGeometry x="530" y="127.5" width="225" height="225" as="geometry"/>
                </mxCell>
                <mxCell id="17" value="" style="triangle;whiteSpace=wrap;html=1;fontSize=18;fontColor=#000000;rotation=90;" vertex="1" parent="7">
                    <mxGeometry x="180" y="185" width="20" height="20" as="geometry"/>
                </mxCell>
            </root>
        </mxGraphModel>
    </diagram>
</mxfile>